<svg width="23.677124" height="30.007812" viewBox="0 0 23.6771 30.0078" fill="none" xmlns="http://www.w3.org/2000/svg" xmlns:xlink="http://www.w3.org/1999/xlink">
	<path id="Vector" d="M22.99 13.74L2.28 0.23C1.82 -0.07 1.23 -0.08 0.77 0.18C0.29 0.44 0 0.95 0 1.5L0 28.5C0 29.05 0.29 29.56 0.77 29.82C0.99 29.94 1.23 30 1.47 30C1.75 30 2.03 29.92 2.28 29.76L22.99 16.26C23.41 15.99 23.67 15.51 23.67 15C23.67 14.49 23.41 14.01 22.99 13.74ZM2.95 25.75L2.95 4.24L19.46 15L2.95 25.75Z" fill="#FFFFFF" fill-opacity="1.000000" fill-rule="nonzero"/>
</svg>
